# xmcd
#
# Track frame offsets:
#	150
#	12090
#	26507
#	41736
#	57940
#	71880
#	85301
#	99555
#	112947
#	125231
#	140268
#	152991
#	168144
#	181561
#
# Disc length: 2601 seconds
#
# Revision: 1
# Processed by: cddbd v1.5.2PL0 Copyright (c) Steve Scherf et al.
# Submitted via: EZCDAudioConverter 5.5.1.1
#
DISCID=b40a270e
DTITLE=Various Artist - When I Reach That Heavenly Shore Unearthly Black Gosp
DTITLE=el 1926-1936
DYEAR=2014
DGENRE=Gospel
TTITLE0=Laurel Fireman's Quartette - You Gotta Live Your Religion Every Day
TTITLE1=Fa Sol La Singers - Rejoicing On The Way
TTITLE2=Blind Gussie Nesbit - Canaan's Land
TTITLE3=Elder Oscar Saunders and Congregation - Everybody Will Be Happy Over The
TTITLE3=re
TTITLE4=Edward W. Clayborn - Jesus Will Make It All Right
TTITLE5=Primitive Baptist Choir of NC - Heaven Belongs To You
TTITLE6=Eddie Head and His Family - Lord I'm The True Vine
TTITLE7=Henry Thomas - Jonah In The Wilderness
TTITLE8=Rev. D.C. Rice - Angels Rolled The Stone Away
TTITLE9=Blind Gussie Nesbit - Pure Religion
TTITLE10=Primitive Baptist Choir of NC - I Love Thy Church O Lord
TTITLE11=Jubilee Gospel Team - Stations Will Be Changed
TTITLE12=Mother McCollum - When I Take My Vacation In Heaven
TTITLE13=Rev. Emmet Dickinson - What The Men Wanted The Women Was Sitting On
EXTD=
EXTT0=
EXTT1=
EXTT2=
EXTT3=
EXTT4=
EXTT5=
EXTT6=
EXTT7=
EXTT8=
EXTT9=
EXTT10=
EXTT11=
EXTT12=
EXTT13=
PLAYORDER=
